<svg width="28" height="28" viewBox="0 0 28 28" fill="none" xmlns="http://www.w3.org/2000/svg">
<path d="M23.3333 3.5H4.66667C2.1 3.5 0 5.6 0 8.16667V9.33333C0 10.0333 0.466667 10.5 1.16667 10.5H26.8333C27.5333 10.5 28 10.0333 28 9.33333V8.16667C28 5.6 25.9 3.5 23.3333 3.5Z" fill="white"/>
<path d="M26.8333 12.8333H1.16667C0.466667 12.8333 0 13.3 0 14V19.8333C0 22.4 2.1 24.5 4.66667 24.5H23.3333C25.9 24.5 28 22.4 28 19.8333V14C28 13.3 27.5333 12.8333 26.8333 12.8333ZM12.8333 21H5.83333C5.13333 21 4.66667 20.5333 4.66667 19.8333C4.66667 19.1333 5.13333 18.6667 5.83333 18.6667H12.8333C13.5333 18.6667 14 19.1333 14 19.8333C14 20.5333 13.5333 21 12.8333 21ZM22.1667 17.5H19.8333C19.1333 17.5 18.6667 17.0333 18.6667 16.3333C18.6667 15.6333 19.1333 15.1667 19.8333 15.1667H22.1667C22.8667 15.1667 23.3333 15.6333 23.3333 16.3333C23.3333 17.0333 22.8667 17.5 22.1667 17.5Z" fill="white"/>
</svg>
