<svg width="40" height="41" viewBox="0 0 40 41" fill="none" xmlns="http://www.w3.org/2000/svg">
<path d="M13.0508 16.9188C13.9789 16.9188 14.7321 16.1656 14.7321 15.2375V8.68011C14.7321 5.74863 17.1172 3.36275 20.0486 3.36275C22.9801 3.36275 25.366 5.74863 25.366 8.68011V15.2375C25.366 16.1656 26.1184 16.9188 27.0474 16.9188C27.9755 16.9188 28.7288 16.1656 28.7288 15.2375V8.68011C28.7296 3.89407 24.8355 0 20.0486 0C15.2635 0 11.3694 3.89407 11.3694 8.68011V15.2375C11.3694 16.1656 12.1226 16.9188 13.0508 16.9188Z" fill="white"/>
<path d="M39.3358 13.1408H30.4111V15.2375C30.4111 17.092 28.9029 18.6002 27.0483 18.6002C25.1937 18.6002 23.6856 17.092 23.6856 15.2375V13.1408H16.4144V15.2375C16.4144 17.092 14.9062 18.6002 13.0517 18.6002C11.1971 18.6002 9.68894 17.092 9.68894 15.2375V13.1408H0.664152C0.200092 13.1408 -0.0865828 13.5065 0.0235473 13.9571L5.90668 37.9142C6.26145 39.261 7.67885 40.353 9.07103 40.353H30.9289C32.3228 40.353 33.7385 39.261 34.095 37.9142L39.9764 13.9571C40.0865 13.5057 39.8007 13.1408 39.3358 13.1408Z" fill="white"/>
</svg>
