<svg width="21" height="20" viewBox="0 0 21 20" fill="none" xmlns="http://www.w3.org/2000/svg">
<g id="3994386_cash_dollar_finance_money_payment_icon 1" clip-path="url(#clip0_25_16)">
<g id="Group">
<path id="Vector" d="M19.7311 2.5H2.23114C2.06696 2.49991 1.90437 2.53218 1.75268 2.59496C1.60098 2.65775 1.46314 2.74982 1.34705 2.86591C1.23096 2.982 1.13889 3.11984 1.0761 3.27154C1.01332 3.42323 0.981047 3.58582 0.98114 3.75V16.25C0.981047 16.4142 1.01332 16.5768 1.0761 16.7285C1.13889 16.8802 1.23096 17.018 1.34705 17.1341C1.46314 17.2502 1.60098 17.3423 1.75268 17.405C1.90437 17.4678 2.06696 17.5001 2.23114 17.5H19.7311C19.8953 17.5001 20.0579 17.4678 20.2096 17.405C20.3613 17.3423 20.4991 17.2502 20.6152 17.1341C20.7313 17.018 20.8234 16.8802 20.8862 16.7285C20.949 16.5768 20.9812 16.4142 20.9811 16.25V3.75C20.9812 3.58582 20.949 3.42323 20.8862 3.27154C20.8234 3.11984 20.7313 2.982 20.6152 2.86591C20.4991 2.74982 20.3613 2.65775 20.2096 2.59496C20.0579 2.53218 19.8953 2.49991 19.7311 2.5ZM5.98114 15C5.98048 14.3372 5.71688 13.7017 5.24818 13.233C4.77948 12.7643 4.14398 12.5007 3.48114 12.5V7.5C4.14398 7.49934 4.77948 7.23574 5.24818 6.76704C5.71688 6.29834 5.98048 5.66284 5.98114 5H15.9811C15.9818 5.66284 16.2454 6.29834 16.7141 6.76704C17.1828 7.23574 17.8183 7.49934 18.4811 7.5V12.5C17.8183 12.5007 17.1828 12.7643 16.7141 13.233C16.2454 13.7017 15.9818 14.3372 15.9811 15H5.98114Z" fill="#E83126"/>
<path id="Vector_2" d="M10.9811 7.5C10.4867 7.5 10.0033 7.64662 9.59222 7.92133C9.18109 8.19603 8.86066 8.58648 8.67144 9.04329C8.48222 9.50011 8.43272 10.0028 8.52918 10.4877C8.62564 10.9727 8.86374 11.4181 9.21337 11.7678C9.56301 12.1174 10.0085 12.3555 10.4934 12.452C10.9784 12.5484 11.481 12.4989 11.9378 12.3097C12.3947 12.1205 12.7851 11.8 13.0598 11.3889C13.3345 10.9778 13.4811 10.4945 13.4811 10C13.4805 9.33716 13.2169 8.70166 12.7482 8.23296C12.2795 7.76426 11.644 7.50066 10.9811 7.5Z" fill="#E83126"/>
</g>
</g>
<defs>
<clipPath id="clip0_25_16">
<rect width="20" height="20" fill="white" transform="translate(0.98114)"/>
</clipPath>
</defs>
</svg>
