<svg width="40" height="40" viewBox="0 0 40 40" fill="none" xmlns="http://www.w3.org/2000/svg">
<path d="M39.9375 30.2344L38.1211 38.1094C37.8659 39.2227 36.8875 40.0016 35.7414 40.0016C16.0312 40 0 23.9688 0 4.25781C0 3.1125 0.778828 2.13281 1.89219 1.87891L9.76719 0.0625021C10.9141 -0.203279 12.0859 0.392033 12.5625 1.47813L16.1969 9.95469C16.6217 10.9531 16.3352 12.1164 15.4953 12.8023L11.2891 16.1797C13.9438 21.5875 18.3406 25.9844 23.75 28.6406L27.1937 24.4375C27.8725 23.5953 29.0445 23.3039 30.043 23.7363L38.5195 27.3699C39.5391 27.9063 40.2031 29.0938 39.9375 30.2344Z" fill="white"/>
</svg>
