<svg width="35" height="35" viewBox="0 0 35 35" fill="none" xmlns="http://www.w3.org/2000/svg">
<path d="M34.9486 26.4541L33.3591 33.3444C33.1358 34.3185 32.2796 35 31.2767 35C14.0287 34.9986 0 20.972 0 3.7258C0 2.7237 0.681539 1.86652 1.65582 1.64436L8.5471 0.0550871C9.55071 -0.17746 10.5762 0.343412 10.9932 1.2937L14.1736 8.71031C14.5454 9.5839 14.2946 10.6017 13.5597 11.2019L9.87886 14.1569C12.2019 18.8885 16.0496 22.7356 20.7832 25.0597L23.7968 21.3821C24.3907 20.6453 25.4164 20.3903 26.2901 20.7686L33.7078 23.9479C34.6 24.4171 35.1811 25.4561 34.9486 26.4541Z" fill="#E83126"/>
</svg>
