<svg width="22" height="22" viewBox="0 0 22 22" fill="none" xmlns="http://www.w3.org/2000/svg">
<path d="M22 20.1655L16.3479 14.5134C17.4831 12.9973 18.1636 11.1213 18.1636 9.08179C18.1636 4.06605 14.0975 0 9.08179 0C4.06605 0 0 4.06605 0 9.08179C0 14.0975 4.06605 18.1636 9.08179 18.1636C11.1213 18.1636 12.9973 17.4831 14.5134 16.3479L20.1655 22L22 20.1655ZM2.5948 9.08179C2.5948 5.50487 5.50487 2.5948 9.08179 2.5948C12.6587 2.5948 15.5688 5.50487 15.5688 9.08179C15.5688 12.6587 12.6587 15.5688 9.08179 15.5688C5.50487 15.5688 2.5948 12.6587 2.5948 9.08179Z" fill="white"/>
</svg>
