<svg width="40" height="40" viewBox="0 0 40 40" fill="none" xmlns="http://www.w3.org/2000/svg">
<path d="M20.0001 24C25.5142 24 29.9842 18.6274 29.9842 12C29.9842 5.37258 25.5142 0 20.0001 0C14.4859 0 10.0159 5.37258 10.0159 12C10.0159 18.6274 14.4859 24 20.0001 24Z" fill="white"/>
<path d="M39.569 34.2C37.7718 30.6 34.3772 27.6 29.9842 25.8C28.7861 25.4 27.3883 25.4 26.3899 26C24.393 27.2 22.3962 27.8 20 27.8C17.6038 27.8 15.607 27.2 13.6101 26C12.6117 25.6 11.2139 25.4 10.0158 26C5.62278 27.8 2.22815 30.8 0.431001 34.4C-0.966785 37 1.22974 40 4.22499 40H35.775C38.7703 40 40.9668 37 39.569 34.2Z" fill="white"/>
</svg>
