<svg width="22" height="20" viewBox="0 0 22 20" fill="none" xmlns="http://www.w3.org/2000/svg">
<path d="M16 6C17.3261 6 18.5979 5.47322 19.5355 4.53553C20.4732 3.59785 21 2.32608 21 1C21 0.734784 20.8946 0.48043 20.7071 0.292893C20.5196 0.105357 20.2652 0 20 0H2.00001C1.73479 0 1.48044 0.105357 1.2929 0.292893C1.10536 0.48043 1.00001 0.734784 1.00001 1C1.00001 2.32608 1.52679 3.59785 2.46447 4.53553C3.40215 5.47322 4.67392 6 6.00001 6H7.00001V8H4.00001C3.76606 7.99528 3.53787 8.07275 3.35515 8.21893C3.17243 8.3651 3.04676 8.57072 3.00001 8.8L1.00001 18.8C0.971382 18.9453 0.975372 19.0951 1.01169 19.2386C1.048 19.3821 1.11574 19.5158 1.21001 19.63C1.30518 19.7473 1.42571 19.8416 1.56253 19.9057C1.69936 19.9698 1.84893 20.002 2.00001 20H20C20.1477 19.999 20.2934 19.9653 20.4265 19.9014C20.5596 19.8374 20.677 19.7447 20.77 19.63C20.8678 19.5175 20.9391 19.3846 20.9789 19.241C21.0187 19.0974 21.0259 18.9467 21 18.8L19 8.8C18.9533 8.57072 18.8276 8.3651 18.6449 8.21893C18.4621 8.07275 18.234 7.99528 18 8H15V6H16ZM9.00001 6H13V8H9.00001V6ZM11 17C10.4067 17 9.82664 16.8241 9.33329 16.4944C8.83995 16.1648 8.45543 15.6962 8.22837 15.1481C8.0013 14.5999 7.94189 13.9967 8.05765 13.4147C8.17341 12.8328 8.45913 12.2982 8.87868 11.8787C9.29824 11.4591 9.83279 11.1734 10.4147 11.0576C10.9967 10.9419 11.5999 11.0013 12.1481 11.2284C12.6962 11.4554 13.1648 11.8399 13.4944 12.3333C13.8241 12.8266 14 13.4067 14 14C14 14.7956 13.6839 15.5587 13.1213 16.1213C12.5587 16.6839 11.7957 17 11 17Z" fill="#E83126"/>
</svg>
