<svg width="55" height="55" viewBox="0 0 55 55" fill="none" xmlns="http://www.w3.org/2000/svg">
<g clip-path="url(#clip0_4_39)">
<path d="M34.6652 25.0907C35.4335 25.0928 36.1945 24.9379 36.9043 24.6349C37.6141 24.3318 38.2585 23.8867 38.8002 23.3252L44.4275 17.5293C44.8725 17.0706 44.9135 16.3242 44.4896 15.8429C44.3832 15.7219 44.254 15.6246 44.11 15.5566C43.966 15.4887 43.8101 15.4516 43.6517 15.4477C43.4934 15.4438 43.3359 15.473 43.1888 15.5337C43.0418 15.5944 42.9082 15.6852 42.7963 15.8007L37.7807 20.9661C37.6123 21.1395 37.384 21.2369 37.146 21.2369C36.9079 21.2369 36.6796 21.1395 36.5112 20.9661C36.1612 20.6061 36.1802 19.9975 36.5295 19.6375L41.5232 14.4909C41.6351 14.3755 41.7232 14.2379 41.782 14.0864C41.8408 13.9349 41.8691 13.7727 41.8653 13.6096C41.8615 13.4465 41.8256 13.2859 41.7597 13.1375C41.6939 12.9892 41.5995 12.8561 41.4823 12.7464C41.2707 12.5486 40.9948 12.4398 40.7091 12.4414C40.3853 12.4416 40.0748 12.5744 39.846 12.8105L34.8567 17.9518C34.6882 18.1252 34.46 18.2225 34.2219 18.2225C33.9839 18.2225 33.7556 18.1252 33.5872 17.9518C33.2379 17.5918 33.2562 16.9832 33.6055 16.6232L38.5992 11.4781C38.7111 11.3627 38.7992 11.2251 38.858 11.0736C38.9168 10.9221 38.9451 10.7599 38.9413 10.5968C38.9375 10.4337 38.9015 10.2731 38.8357 10.1247C38.7699 9.97635 38.6755 9.8433 38.5583 9.73364C38.3466 9.53582 38.0707 9.42697 37.7851 9.42859C37.4613 9.42899 37.1509 9.56171 36.922 9.79766L31.2983 15.5935C30.7534 16.1519 30.3215 16.8162 30.0274 17.5478C29.7334 18.2795 29.5831 19.064 29.5853 19.8559V20.4758C29.5854 20.6343 29.5552 20.7912 29.4963 20.9377C29.4375 21.0841 29.3513 21.2171 29.2425 21.3292L26.64 24.0121C26.6129 24.0401 26.5807 24.0623 26.5452 24.0775C26.5097 24.0926 26.4716 24.1004 26.4332 24.1004C26.3948 24.1004 26.3568 24.0926 26.3213 24.0775C26.2858 24.0623 26.2536 24.0401 26.2264 24.0121L13.5628 10.9599C13.3442 10.7343 13.0478 10.6072 12.7386 10.6064C12.4293 10.6056 12.1323 10.731 11.9126 10.9553C10.8054 12.0859 10.2141 13.6819 10.2141 15.5702C10.2068 18.6885 11.7971 22.2737 14.3645 24.9159L20.6093 31.352C21.4969 32.2649 22.6996 32.7777 23.9536 32.7778C24.3533 32.778 24.7514 32.7254 25.1382 32.6212C25.2353 32.595 25.3353 32.5815 25.4357 32.5813C25.7292 32.5813 26.0119 32.6956 26.2271 32.9014L27.0595 33.6937C27.2742 33.9198 27.3948 34.2233 27.3957 34.5396V34.9569C27.3936 35.9054 27.7553 36.8165 28.4021 37.4914L34.9831 44.3884L34.9897 44.396C35.7201 45.1487 36.7107 45.5715 37.7437 45.5714C38.7766 45.5714 39.7672 45.1484 40.4975 44.3956C41.2278 43.6428 41.6381 42.6218 41.638 41.5573C41.638 40.4927 41.2276 39.4718 40.4971 38.7191L30.6325 28.5524C30.6053 28.5244 30.5838 28.4912 30.5691 28.4546C30.5544 28.418 30.5468 28.3788 30.5468 28.3392C30.5468 28.2996 30.5544 28.2604 30.5691 28.2239C30.5838 28.1873 30.6053 28.154 30.6325 28.1261L33.235 25.4439C33.3436 25.3319 33.4725 25.2431 33.6145 25.1824C33.7565 25.1218 33.9086 25.0906 34.0623 25.0907H34.6652Z" fill="white"/>
<path d="M24.3234 34.7003C22.5151 34.6966 20.7812 33.9801 19.4978 32.7061L18.5194 31.7277C18.4135 31.6221 18.2701 31.5628 18.1205 31.5628C17.971 31.5628 17.8275 31.6221 17.7217 31.7277L11.7214 37.6969C10.6519 38.7664 10.27 40.3406 10.7995 41.8823C10.8291 41.9692 10.8642 42.0541 10.9047 42.1364C11.6169 43.5949 12.9991 44.442 14.5112 44.442C15.0312 44.4432 15.5463 44.3413 16.0266 44.1421C16.5069 43.9429 16.943 43.6504 17.3094 43.2814L25.3117 35.2411C25.3454 35.2067 25.3711 35.1654 25.3872 35.12C25.4033 35.0747 25.4093 35.0264 25.4049 34.9785V34.9601C25.4017 34.9161 25.3897 34.8732 25.3695 34.8339C25.3493 34.7947 25.3214 34.7599 25.2875 34.7318C25.2535 34.7036 25.2142 34.6826 25.1719 34.67C25.1296 34.6575 25.0851 34.6536 25.0413 34.6587C24.8029 34.6851 24.5633 34.699 24.3234 34.7003Z" fill="white"/>
</g>
<rect x="1" y="1" width="53" height="53" rx="26.5" stroke="#E83126" stroke-width="2"/>
<defs>
<clipPath id="clip0_4_39">
<rect width="36.1429" height="36.1429" fill="white" transform="translate(9.42847 9.42857)"/>
</clipPath>
</defs>
</svg>
